<svg xmlns="http://www.w3.org/2000/svg">

<symbol id="github" fill-rule="evenodd" clip-rule="evenodd" stroke-linejoin="round" stroke-miterlimit="1.414">
  <path d="M8 0C3.58 0 0 3.582 0 8c0 3.535 2.292 6.533 5.47 7.59.4.075.547-.172.547-.385 0-.19-.007-.693-.01-1.36-2.226.483-2.695-1.073-2.695-1.073-.364-.924-.89-1.17-.89-1.17-.725-.496.056-.486.056-.486.803.056 1.225.824 1.225.824.714 1.223 1.873.87 2.33.665.072-.517.278-.87.507-1.07-1.777-.2-3.644-.888-3.644-3.953 0-.873.31-1.587.823-2.147-.09-.202-.36-1.015.07-2.117 0 0 .67-.215 2.2.82.64-.178 1.32-.266 2-.27.68.004 1.36.092 2 .27 1.52-1.035 2.19-.82 2.19-.82.43 1.102.16 1.915.08 2.117.51.56.82 1.274.82 2.147 0 3.073-1.87 3.75-3.65 3.947.28.24.54.73.54 1.48 0 1.07-.01 1.93-.01 2.19 0 .21.14.46.55.38C13.71 14.53 16 11.53 16 8c0-4.418-3.582-8-8-8"/>
</symbol>

<symbol id="linkedin" fill-rule="evenodd" clip-rule="evenodd" stroke-linejoin="round" stroke-miterlimit="1.414">
  <path d="M13.632 13.635h-2.37V9.922c0-.886-.018-2.025-1.234-2.025-1.235 0-1.424.964-1.424 1.96v3.778h-2.37V6H8.51v1.04h.03c.318-.6 1.092-1.233 2.247-1.233 2.4 0 2.845 1.58 2.845 3.637v4.188zM3.558 4.955c-.762 0-1.376-.617-1.376-1.377 0-.758.614-1.375 1.376-1.375.76 0 1.376.617 1.376 1.375 0 .76-.617 1.377-1.376 1.377zm1.188 8.68H2.37V6h2.376v7.635zM14.816 0H1.18C.528 0 0 .516 0 1.153v13.694C0 15.484.528 16 1.18 16h13.635c.652 0 1.185-.516 1.185-1.153V1.153C16 .516 15.467 0 14.815 0z" fill-rule="nonzero"/>
</symbol>

<symbol id="twitter" fill-rule="evenodd" clip-rule="evenodd" stroke-linejoin="round" stroke-miterlimit="1.414" style="fill:rgb(29, 155, 240)">
  <path d="M16 3.038c-.59.26-1.22.437-1.885.517.677-.407 1.198-1.05 1.443-1.816-.634.37-1.337.64-2.085.79-.598-.64-1.45-1.04-2.396-1.04-1.812 0-3.282 1.47-3.282 3.28 0 .26.03.51.085.75-2.728-.13-5.147-1.44-6.766-3.42C.83 2.58.67 3.14.67 3.75c0 1.14.58 2.143 1.46 2.732-.538-.017-1.045-.165-1.487-.41v.04c0 1.59 1.13 2.918 2.633 3.22-.276.074-.566.114-.865.114-.21 0-.41-.02-.61-.058.42 1.304 1.63 2.253 3.07 2.28-1.12.88-2.54 1.404-4.07 1.404-.26 0-.52-.015-.78-.045 1.46.93 3.18 1.474 5.04 1.474 6.04 0 9.34-5 9.34-9.33 0-.14 0-.28-.01-.42.64-.46 1.2-1.04 1.64-1.7z" fill-rule="nonzero"/>
</symbol>

<symbol id="mastodon" width="100%" height="100%" viewBox="0 0 61 65" fill="none" xmlns="http://www.w3.org/2000/svg">
  <path d="M60.7539 14.3904C59.8143 7.40642 53.7273 1.90257 46.5117 0.836066C45.2943 0.655854 40.6819 0 29.9973 0H29.9175C19.2299 0 16.937 0.655854 15.7196 0.836066C8.70488 1.87302 2.29885 6.81852 0.744617 13.8852C-0.00294988 17.3654 -0.0827298 21.2237 0.0561464 24.7629C0.254119 29.8384 0.292531 34.905 0.753482 39.9598C1.07215 43.3175 1.62806 46.6484 2.41704 49.9276C3.89445 55.9839 9.87499 61.0239 15.7344 63.0801C22.0077 65.2244 28.7542 65.5804 35.2184 64.1082C35.9295 63.9428 36.6318 63.7508 37.3252 63.5321C38.8971 63.0329 40.738 62.4745 42.0913 61.4937C42.1099 61.4799 42.1251 61.4621 42.1358 61.4417C42.1466 61.4212 42.1526 61.3986 42.1534 61.3755V56.4773C42.153 56.4557 42.1479 56.4345 42.1383 56.4151C42.1287 56.3958 42.1149 56.3788 42.0979 56.3655C42.0809 56.3522 42.0611 56.3429 42.04 56.3382C42.019 56.3335 41.9971 56.3336 41.9761 56.3384C37.8345 57.3276 33.5905 57.8234 29.3324 57.8156C22.0045 57.8156 20.0336 54.3384 19.4693 52.8908C19.0156 51.6397 18.7275 50.3346 18.6124 49.0088C18.6112 48.9866 18.6153 48.9643 18.6243 48.9439C18.6333 48.9236 18.647 48.9056 18.6643 48.8915C18.6816 48.8774 18.7019 48.8675 18.7237 48.8628C18.7455 48.858 18.7681 48.8585 18.7897 48.8641C22.8622 49.8465 27.037 50.3423 31.2265 50.3412C32.234 50.3412 33.2387 50.3412 34.2463 50.3146C38.4598 50.1964 42.9009 49.9808 47.0465 49.1713C47.1499 49.1506 47.2534 49.1329 47.342 49.1063C53.881 47.8507 60.1038 43.9097 60.7362 33.9301C60.7598 33.5372 60.8189 29.8148 60.8189 29.4071C60.8218 28.0215 61.2651 19.5781 60.7539 14.3904Z" fill="url(#paint0_linear_89_8)"/>
  <path d="M50.3943 22.237V39.5876H43.5185V22.7481C43.5185 19.2029 42.0411 17.3949 39.036 17.3949C35.7325 17.3949 34.0778 19.5338 34.0778 23.7585V32.9759H27.2434V23.7585C27.2434 19.5338 25.5857 17.3949 22.2822 17.3949C19.2949 17.3949 17.8027 19.2029 17.8027 22.7481V39.5876H10.9298V22.237C10.9298 18.6918 11.835 15.8754 13.6453 13.7877C15.5128 11.7049 17.9623 10.6355 21.0028 10.6355C24.522 10.6355 27.1813 11.9885 28.9542 14.6917L30.665 17.5633L32.3788 14.6917C34.1517 11.9885 36.811 10.6355 40.3243 10.6355C43.3619 10.6355 45.8114 11.7049 47.6847 13.7877C49.4931 15.8734 50.3963 18.6899 50.3943 22.237Z" fill="white"/>
</symbol>
<defs>
  <linearGradient id="paint0_linear_89_8" x1="30.5" y1="0" x2="30.5" y2="65" gradientUnits="userSpaceOnUse">
    <stop stop-color="#6364FF"/>
    <stop offset="1" stop-color="#563ACC"/>
  </linearGradient>
</defs>

<!--16x16, centered-->
<symbol id="cohost" width="14" height="14" xmlns="http://www.w3.org/2000/svg" fill="none" viewBox="0 0 416 300" x="1" y="1">
  <path fill="rgb(131,37,79)" fill-rule="evenodd" d="M335.13 249.687c-26.067 15.965 -56.123 28.509 -90.166 37.631 -37.809 10.131 -73.445 14.192 -106.908 12.183 -33.463 -2.008 -61.973 -10.738 -85.531 -26.188 -23.557 -15.45 -39.44 -38.491 -47.648 -69.123 -8.255 -30.807 -6.032 -58.746 6.667 -83.818 12.7 -25.071 33.061 -46.755 61.083 -65.051 28.023 -18.296 60.938 -32.51 98.747 -42.64C209.008 2.597 244.501 -1.473 277.854 0.471 300.262 1.778 320.475 6.108 338.49 13.461c8.799 3.591 17.073 7.903 24.824 12.936 23.621 15.339 39.536 38.325 47.744 68.957 8.208 30.632 5.93 58.539 -6.834 83.722 -1.783 3.518 -3.714 6.97 -5.793 10.358 -1.468 -6.614 -4.418 -12.382 -8.849 -17.302 -2.175 -2.415 -4.593 -4.634 -7.255 -6.655 -5.451 -4.138 -11.924 -7.448 -19.418 -9.932 -11.153 -3.697 -23.582 -5.545 -37.285 -5.545 -13.766 0 -26.242 1.832 -37.428 5.497 -11.185 3.665 -20.076 9.178 -26.673 16.539 -6.597 7.362 -9.895 16.651 -9.895 27.868 0 11.154 3.298 20.427 9.895 27.821 6.597 7.393 15.488 12.954 26.673 16.682 11.186 3.729 23.662 5.593 37.428 5.593 3.24 0 6.408 -0.104 9.506 -0.313Zm-119.254 -19.859c-2.613 2.804 -7.218 5.784 -13.814 8.939 -6.597 3.155 -14.548 5.816 -23.853 7.982 -9.305 2.167 -19.311 3.251 -30.019 3.251 -9.369 0 -18.547 -0.908 -27.533 -2.725 -8.987 -1.816 -17.113 -4.7 -24.379 -8.652 -7.266 -3.951 -13.05 -9.114 -17.352 -15.487 -4.302 -6.374 -6.453 -14.118 -6.453 -23.232 0 -9.241 2.151 -17.049 6.453 -23.422 4.302 -6.374 10.086 -11.504 17.352 -15.392 7.266 -3.888 15.392 -6.708 24.379 -8.461 8.986 -1.753 18.164 -2.629 27.533 -2.629 10.771 0 20.714 0.956 29.828 2.868s16.937 4.414 23.47 7.505c6.533 3.091 11.265 6.389 14.197 9.895l-24.474 16.061c-3.569 -3.888 -8.987 -6.995 -16.252 -9.321 -7.266 -2.327 -16.093 -3.49 -26.482 -3.49 -5.099 0 -10.246 0.399 -15.44 1.195 -5.194 0.797 -9.958 2.151 -14.292 4.063s-7.824 4.589 -10.469 8.031c-2.645 3.442 -3.967 7.807 -3.967 13.097 0 5.227 1.322 9.545 3.967 12.954 2.645 3.41 6.135 6.119 10.469 8.127 4.334 2.007 9.098 3.425 14.292 4.254 5.194 0.829 10.341 1.243 15.44 1.243 10.197 0 19.041 -1.275 26.529 -3.824 7.489 -2.55 12.763 -5.482 15.823 -8.796l25.047 15.966Zm109.748 -3.729c13.321 0 23.646 -2.39 30.976 -7.17 7.329 -4.78 10.994 -11.121 10.994 -19.025 0 -8.094 -3.681 -14.451 -11.042 -19.072 -7.362 -4.621 -17.671 -6.931 -30.928 -6.931 -13.32 0 -23.693 2.31 -31.118 6.931 -7.425 4.621 -11.138 10.978 -11.138 19.072 0 8.031 3.713 14.404 11.138 19.121 7.425 4.716 17.798 7.074 31.118 7.074Z" clip-rule="evenodd"/>
</symbol>

<symbol id="theme-toggle" width="100%" height="100%" viewBox="0 0 24 24">
  <path d="M12 22c5.523 0 10-4.477 10-10S17.523 2 12 2 2 6.477 2 12s4.477 10 10 10Zm0-1.5v-17a8.5 8.5 0 1 1 0 17Z" fill="currentcolor"/>
</symbol>

</svg>
